<?xml version="1.0" encoding="UTF-8" standalone="no"?>
<!-- Created with Inkscape (http://www.inkscape.org/) -->

<svg
   version="1.1"
   id="svg1"
   width="200"
   height="200"
   viewBox="0 0 200 200"
   sodipodi:docname="kneadtoinvest_logo.svg"
   inkscape:version="1.4.2 (f4327f4, 2025-05-13)"
   xmlns:inkscape="http://www.inkscape.org/namespaces/inkscape"
   xmlns:sodipodi="http://sodipodi.sourceforge.net/DTD/sodipodi-0.dtd"
   xmlns="http://www.w3.org/2000/svg"
   xmlns:svg="http://www.w3.org/2000/svg">
  <defs
     id="defs1">
    <linearGradient
       id="swatch10"
       inkscape:swatch="solid">
      <stop
         style="stop-color:#ffffff;stop-opacity:1;"
         offset="0"
         id="stop11" />
    </linearGradient>
    <linearGradient
       id="swatch9"
       inkscape:swatch="solid">
      <stop
         style="stop-color:#ffffff;stop-opacity:1;"
         offset="0"
         id="stop10" />
    </linearGradient>
  </defs>
  <!-- Background rectangle -->
  <rect
     width="100%"
     height="100%"
     fill="none"
     id="rect1"
     x="0.37446088"
     y="0.12482012"
     style="display:none" />
  <sodipodi:namedview
     id="namedview1"
     pagecolor="#505050"
     bordercolor="#eeeeee"
     borderopacity="1"
     inkscape:showpageshadow="0"
     inkscape:pageopacity="0"
     inkscape:pagecheckerboard="0"
     inkscape:deskcolor="#505050"
     inkscape:zoom="5.665"
     inkscape:cx="84.112975"
     inkscape:cy="87.29038"
     inkscape:window-width="2560"
     inkscape:window-height="1351"
     inkscape:window-x="-9"
     inkscape:window-y="-9"
     inkscape:window-maximized="1"
     inkscape:current-layer="layer1" />
  <g
     inkscape:groupmode="layer"
     inkscape:label="Image"
     id="g1">
    <g
       inkscape:groupmode="layer"
       id="layer1"
       inkscape:label="fill" />
    <path
       style="fill:#6d90fe;fill-opacity:1;stroke-width:0.176523"
       d="m 131.86231,145.75181 c -6.00044,-2.56621 -23.38566,-12.06846 -29.39099,-16.06425 -6.124585,-4.07513 -9.140475,-7.59484 -10.414437,-12.15422 -0.81532,-2.91795 -1.229506,-7.50413 -1.23274,-13.64984 -0.0074,-14.003048 2.159065,-19.61596 9.285937,-24.058509 7.82724,-4.879117 33.13114,-19.095973 33.99622,-19.100579 0.19862,-0.0011 0.98582,2.704573 1.48921,5.118483 1.2282,5.889636 0.15543,11.118721 -3.36636,16.408869 -2.60264,3.909474 -4.97322,5.565506 -20.45437,14.288978 -6.75182,3.804588 -11.06869,6.737688 -11.06869,7.520628 0,0.7948 4.94224,4.05555 12.9744,8.56017 6.77417,3.79909 13.55476,8.08217 15.8389,10.00491 2.01784,1.69857 4.15681,5.03881 5.32272,8.312 1.02194,2.86904 1.51662,6.73885 1.17525,9.19391 -0.36731,2.64162 -1.63499,6.38574 -2.1594,6.37785 -0.12673,-0.002 -1.02477,-0.34318 -1.99565,-0.7584 z"
       id="path11" />
    <path
       style="fill:#6d90fe;fill-opacity:1;stroke-width:0.176523"
       d="m 69.814652,160.39256 c -0.533981,-0.11948 -1.237592,-0.35846 -1.56358,-0.53108 -1.452918,-0.76936 -2.963584,-2.94521 -3.359862,-4.83928 -0.264362,-1.26356 -0.240208,-4.90676 0.0586,-8.8379 0.135532,-1.7831 0.203582,-3.506 0.151221,-3.82866 -0.149766,-0.92289 -0.733594,-1.32501 -2.454792,-1.69075 -1.851491,-0.39343 -2.595721,-0.90172 -3.168603,-2.1641 -0.928585,-2.04619 -1.260428,-5.54727 -1.490881,-15.72939 -0.217606,-9.61452 -0.216225,-40.76182 0.0022,-50.397172 0.329821,-14.547026 0.911819,-16.992793 4.202026,-17.658445 1.555002,-0.314598 2.489652,-0.695386 2.707932,-1.103244 0.203182,-0.379651 0.144394,-2.157944 -0.202585,-6.127985 -0.342828,-3.922539 -0.146165,-7.052822 0.564675,-8.987942 0.785599,-2.138636 2.928174,-3.514212 5.731049,-3.679449 3.003699,-0.177075 4.716747,1.090758 5.818336,4.306175 0.676229,1.973841 0.761571,5.370307 0.256522,10.209319 -0.517529,4.958584 -0.695112,4.34347 1.477432,5.117507 3.760584,1.339827 5.013414,2.905195 5.374206,6.714885 0.502456,5.305562 0.6336,12.850517 0.6336,36.451898 0,23.507813 -0.128274,30.958703 -0.627556,36.451893 -0.351876,3.87141 -1.760508,5.58148 -5.614294,6.81575 -0.715729,0.22923 -1.339443,0.51612 -1.386034,0.63753 -0.04659,0.12141 0.08276,2.46585 0.287448,5.20986 0.595823,7.98757 0.505452,9.3942 -0.701436,10.91802 -1.719263,2.17075 -4.380139,3.26065 -6.695655,2.74256 z"
       id="path12" />
  </g>
</svg>
